<svg id="Слой_1" data-name="Слой 1" xmlns="http://www.w3.org/2000/svg" viewBox="0 0 105.26 60.86"><defs><style>.cls-1{fill:#e30613;}.cls-2,.cls-3{fill:none;stroke:#e20714;stroke-miterlimit:10;}.cls-2{stroke-width:10px;}.cls-3{stroke-width:5px;}.cls-4{fill:#fff;}</style></defs><rect class="cls-1" x="0.32" width="103.83" height="33.35"/><path class="cls-2" d="M230.6,118.54l7.63,0,2.27-11.19h.14s-.14,8.39,3.6,11c4.53,3.2,9.09-.68,9.67-3.08.29-1.21-1.82-1.72-3.68-3.55-2.18-2.13-2.45-6.32-2.45-6.32s3.79-1.53,5.37-3.81c2.29-3.32,2.31-8.71-1.73-9.88-1.38-.4-6.61.24-5.88,1.78a7.52,7.52,0,0,1-.47,7.2c-.73,1.07-3.93,3-3.93,3s2-7.86.63-10c-.78-1.25-2.52-2.48-5.43-2.27s-4.72,1.3-4.5,2.57c.17,1,1.81,1,1.52,3.38-.64,5.26-3.56,20.24-3.56,20.24A.81.81,0,0,0,230.6,118.54Z" transform="translate(-224.79 -64.88)"/><path class="cls-2" d="M269.7,99.74a12.21,12.21,0,0,0-9.47,2.75,12.93,12.93,0,0,0-4.26,9.23c0,6.17,4.81,7.64,7.53,8a15.29,15.29,0,0,0,10.21-3.28,12.56,12.56,0,0,0,3.71-9.27C277.4,104.46,274.84,100.35,269.7,99.74Zm-1,13.49c-.41.75-1.34,2.55-3.52,2.24-1.25-.18-1.67-1.83-1.77-2.72a12.77,12.77,0,0,1,1.2-6.17c.43-.83,1.83-2.54,3.57-2.26a2.14,2.14,0,0,1,1.7,2.37C269.93,109.18,269.85,111.05,268.66,113.23Z" transform="translate(-224.79 -64.88)"/><path class="cls-2" d="M278.24,119.54l7.62,0,2.27-11.19h.14s-.14,8.39,3.6,11c4.53,3.2,9.09-.68,9.67-3.08.29-1.21-1.82-1.72-3.67-3.55-2.18-2.13-2.46-6.32-2.46-6.32s3.79-1.53,5.37-3.81c2.3-3.32,2.31-8.71-1.73-9.88-1.37-.4-6.61.24-5.87,1.78a7.55,7.55,0,0,1-.48,7.2c-.73,1.07-3.93,3-3.93,3s2-7.86.63-10c-.77-1.25-2.52-2.48-5.43-2.27s-4.72,1.3-4.5,2.57c.17,1,1.82,1,1.52,3.38-.64,5.26-3.55,20.24-3.55,20.24A.8.8,0,0,0,278.24,119.54Z" transform="translate(-224.79 -64.88)"/><path class="cls-2" d="M317.34,100.74a12.23,12.23,0,0,0-9.48,2.75,12.93,12.93,0,0,0-4.26,9.23c0,6.17,4.81,7.64,7.53,8a15.29,15.29,0,0,0,10.21-3.28,12.6,12.6,0,0,0,3.72-9.27C325,105.46,322.47,101.35,317.34,100.74Zm-1,13.49c-.41.75-1.34,2.55-3.52,2.24-1.25-.18-1.67-1.83-1.77-2.72a12.66,12.66,0,0,1,1.21-6.17c.43-.83,1.82-2.54,3.56-2.26a2.16,2.16,0,0,1,1.71,2.37A11.45,11.45,0,0,1,316.29,114.23Z" transform="translate(-224.79 -64.88)"/><path class="cls-3" d="M267.41,90.52a34.81,34.81,0,0,1,.32-7.58,10.78,10.78,0,0,1,2.52-5.37s-.6-1.1-.77-1.55a2.77,2.77,0,0,1,1.06-3.4c1.91-1.08,4,.41,4,.41a3,3,0,0,1,2.87-2.34,3.26,3.26,0,0,1,3.26,2.59,2.92,2.92,0,0,1,3.91.13,3,3,0,0,1,.82,3.15,3.22,3.22,0,0,1-1.58,1.58,13.79,13.79,0,0,1,1.46,2,12.26,12.26,0,0,1,.93,2.71.49.49,0,0,1-.34.57l-3.94,1.14a29.13,29.13,0,0,1,2.37,1.74c.88.88,1.38,2.16,1,2.84-1,2-3.16,1-3.16,1A3,3,0,0,1,280,91.38a2.13,2.13,0,0,1-2-1Z" transform="translate(-224.79 -64.88)"/><path class="cls-4" d="M230.6,119l7.63,0,2.27-11.19h.14s-.14,8.39,3.6,11c4.53,3.2,9.09-.69,9.67-3.08.29-1.21-1.82-1.73-3.68-3.55-2.18-2.14-2.45-6.32-2.45-6.32s3.79-1.54,5.37-3.81c2.29-3.32,2.31-8.71-1.73-9.88-1.38-.4-6.61.24-5.88,1.78a7.52,7.52,0,0,1-.47,7.2c-.73,1.07-3.93,3-3.93,3s2-7.86.63-10c-.78-1.25-2.52-2.48-5.43-2.28s-4.72,1.31-4.5,2.57c.17,1,1.81,1,1.52,3.39C232.72,103,229.8,118,229.8,118A.81.81,0,0,0,230.6,119Z" transform="translate(-224.79 -64.88)"/><path class="cls-4" d="M269.7,100.16a12.21,12.21,0,0,0-9.47,2.74,13,13,0,0,0-4.26,9.24c0,6.17,4.81,7.64,7.53,8a15.29,15.29,0,0,0,10.21-3.28,12.56,12.56,0,0,0,3.71-9.27C277.4,104.88,274.84,100.77,269.7,100.16Zm-1,13.48c-.41.76-1.34,2.56-3.52,2.25-1.25-.18-1.67-1.84-1.77-2.72a12.75,12.75,0,0,1,1.2-6.17c.43-.83,1.83-2.55,3.57-2.26a2.14,2.14,0,0,1,1.7,2.37C269.93,109.6,269.85,111.47,268.66,113.64Z" transform="translate(-224.79 -64.88)"/><path class="cls-4" d="M278.24,120l7.62,0,2.27-11.19h.14s-.14,8.39,3.6,11c4.53,3.2,9.09-.69,9.67-3.08.29-1.21-1.82-1.73-3.67-3.55-2.18-2.14-2.46-6.32-2.46-6.32s3.79-1.54,5.37-3.81c2.3-3.32,2.31-8.71-1.73-9.88-1.37-.4-6.61.24-5.87,1.78a7.55,7.55,0,0,1-.48,7.2c-.73,1.07-3.93,3-3.93,3s2-7.86.63-10c-.77-1.25-2.52-2.48-5.43-2.28s-4.72,1.31-4.5,2.57c.17,1,1.82,1,1.52,3.39-.64,5.26-3.55,20.24-3.55,20.24A.81.81,0,0,0,278.24,120Z" transform="translate(-224.79 -64.88)"/><path class="cls-4" d="M317.34,101.16a12.23,12.23,0,0,0-9.48,2.74,13,13,0,0,0-4.26,9.24c0,6.17,4.81,7.64,7.53,8a15.29,15.29,0,0,0,10.21-3.28,12.6,12.6,0,0,0,3.72-9.27C325,105.88,322.47,101.77,317.34,101.16Zm-1,13.48c-.41.76-1.34,2.56-3.52,2.25-1.25-.18-1.67-1.84-1.77-2.72a12.64,12.64,0,0,1,1.21-6.17c.43-.83,1.82-2.55,3.56-2.26a2.16,2.16,0,0,1,1.71,2.37A11.4,11.4,0,0,1,316.29,114.64Z" transform="translate(-224.79 -64.88)"/><path class="cls-4" d="M267.41,90.52a34.81,34.81,0,0,1,.32-7.58,10.78,10.78,0,0,1,2.52-5.37s-.6-1.1-.77-1.55a2.77,2.77,0,0,1,1.06-3.4c1.91-1.08,4,.41,4,.41a3,3,0,0,1,2.87-2.34,3.26,3.26,0,0,1,3.26,2.59,2.92,2.92,0,0,1,3.91.13,3,3,0,0,1,.82,3.15,3.22,3.22,0,0,1-1.58,1.58,13.79,13.79,0,0,1,1.46,2,12.26,12.26,0,0,1,.93,2.71.49.49,0,0,1-.34.57l-3.94,1.14a29.13,29.13,0,0,1,2.37,1.74c.88.88,1.38,2.16,1,2.84-1,2-3.16,1-3.16,1A3,3,0,0,1,280,91.38a2.13,2.13,0,0,1-2-1Z" transform="translate(-224.79 -64.88)"/></svg>